<svg xmlns="http://www.w3.org/2000/svg" xmlns:xlink="http://www.w3.org/1999/xlink" width="500" zoomAndPan="magnify" viewBox="0 0 375 374.999991" height="500" preserveAspectRatio="xMidYMid meet" version="1.0"><defs><g/><clipPath id="eab13cdd17"><path d="M 57.199219 196.238281 L 304.335938 196.238281 L 304.335938 235.765625 L 57.199219 235.765625 Z M 57.199219 196.238281 " clip-rule="nonzero"/></clipPath><clipPath id="459d6f4ebb"><path d="M 72.582031 208.691406 C 69.761719 207.492188 67.757812 210.265625 67.757812 211.765625 C 67.683594 213.265625 69.167969 215.066406 70.652344 216.339844 C 72.804688 218.214844 76.664062 219.492188 80.375 220.617188 C 85.273438 222.117188 91.285156 223.316406 97.519531 223.839844 C 104.871094 224.589844 113.109375 224.441406 121.644531 223.914062 C 131.292969 223.316406 142.796875 221.515625 152.296875 219.867188 C 160.609375 218.515625 168.476562 215.890625 175.601562 215.066406 C 181.613281 214.316406 185.175781 213.867188 192.300781 214.390625 C 204.992188 215.367188 231.117188 222.941406 245.070312 224.367188 C 254.199219 225.339844 262.882812 225.039062 267.855469 224.890625 C 270.304688 224.816406 271.195312 224.890625 273.273438 224.367188 C 276.390625 223.691406 281.511719 221.816406 284.257812 220.164062 C 286.1875 218.964844 287.449219 217.691406 288.710938 216.191406 C 289.972656 214.839844 290.863281 213.492188 291.753906 211.691406 C 292.792969 209.441406 293.164062 205.390625 294.203125 203.515625 C 294.871094 202.316406 295.539062 201.492188 296.429688 200.964844 C 297.320312 200.441406 298.65625 200.214844 299.695312 200.289062 C 300.734375 200.441406 301.921875 201.039062 302.664062 201.789062 C 303.40625 202.539062 304.074219 203.664062 304.148438 204.789062 C 304.222656 206.140625 303.554688 208.464844 302.515625 209.441406 C 301.476562 210.414062 299.101562 210.867188 297.765625 210.640625 C 296.726562 210.492188 295.613281 209.664062 295.019531 208.839844 C 294.351562 208.015625 293.757812 206.816406 293.832031 205.691406 C 293.90625 204.339844 294.945312 202.164062 295.984375 201.265625 C 296.800781 200.589844 298.0625 200.289062 299.101562 200.289062 C 300.140625 200.289062 301.402344 200.742188 302.21875 201.414062 C 303.035156 202.089844 303.777344 203.140625 304.074219 204.265625 C 304.371094 205.617188 303.925781 207.265625 303.40625 209.140625 C 302.664062 211.992188 300.882812 216.714844 299.324219 219.339844 C 298.210938 221.289062 297.023438 222.492188 295.613281 223.992188 C 294.203125 225.492188 292.792969 226.914062 290.714844 228.339844 C 287.96875 230.140625 284.035156 232.316406 280.324219 233.441406 C 276.390625 234.714844 272.679688 235.089844 267.855469 235.390625 C 261.324219 235.839844 253.753906 235.914062 244.550781 234.941406 C 230.820312 233.441406 205.140625 226.015625 193.859375 224.890625 C 188.21875 224.367188 186.214844 224.441406 181.167969 224.964844 C 173.597656 225.714844 162.464844 228.867188 152.964844 230.441406 C 143.316406 232.015625 133.519531 233.742188 123.722656 234.265625 C 113.703125 234.867188 102.125 234.714844 93.4375 233.742188 C 86.832031 233.066406 81.042969 231.867188 76.144531 230.289062 C 72.210938 229.089844 68.871094 227.367188 66.050781 225.789062 C 63.972656 224.589844 62.117188 223.464844 60.78125 221.964844 C 59.519531 220.539062 58.703125 218.816406 58.109375 217.089844 C 57.515625 215.289062 57.367188 213.191406 57.367188 211.316406 C 57.367188 209.441406 57.441406 207.566406 58.109375 205.691406 C 58.703125 203.742188 59.890625 201.414062 61.300781 199.914062 C 62.636719 198.566406 64.566406 197.441406 66.347656 196.914062 C 68.054688 196.390625 69.984375 196.242188 71.839844 196.617188 C 73.992188 197.140625 77.035156 198.714844 78.59375 200.066406 C 79.632812 201.039062 80.300781 202.164062 80.597656 203.140625 C 80.894531 204.039062 80.820312 204.867188 80.597656 205.691406 C 80.375 206.441406 80.003906 207.265625 79.410156 207.867188 C 78.667969 208.617188 77.257812 209.441406 76.144531 209.589844 C 74.957031 209.742188 72.582031 208.691406 72.582031 208.691406 " clip-rule="nonzero"/></clipPath><clipPath id="b687a21a1d"><path d="M 121 123.332031 L 176.75 123.332031 L 176.75 165.332031 L 121 165.332031 Z M 121 123.332031 " clip-rule="nonzero"/></clipPath><clipPath id="65bcfc4cfe"><path d="M 108.5 137 L 140 137 L 140 149 L 108.5 149 Z M 108.5 137 " clip-rule="nonzero"/></clipPath></defs><g fill="#000000" fill-opacity="1"><g transform="translate(249.19065, 169.405265)"><g><path d="M 3.890625 -1.6875 C 3.066406 -1.28125 2.257812 -0.96875 1.46875 -0.75 L -3.671875 -11.03125 C -3.035156 -11.4375 -2.269531 -11.863281 -1.375 -12.3125 C -0.476562 -12.757812 0.390625 -13.039062 1.234375 -13.15625 C 2.085938 -13.269531 2.867188 -13.226562 3.578125 -13.03125 C 5.003906 -12.601562 6.125 -11.582031 6.9375 -9.96875 C 7.84375 -8.144531 7.988281 -6.492188 7.375 -5.015625 C 6.800781 -3.671875 5.640625 -2.5625 3.890625 -1.6875 Z M 2.625 -3.40625 C 2.976562 -3.507812 3.320312 -3.644531 3.65625 -3.8125 C 4 -3.976562 4.328125 -4.222656 4.640625 -4.546875 C 4.960938 -4.867188 5.195312 -5.234375 5.34375 -5.640625 C 5.65625 -6.523438 5.53125 -7.53125 4.96875 -8.65625 C 4.050781 -10.476562 2.820312 -11.269531 1.28125 -11.03125 C 0.78125 -10.957031 0.242188 -10.773438 -0.328125 -10.484375 L -0.546875 -10.375 C -0.617188 -10.34375 -0.695312 -10.304688 -0.78125 -10.265625 Z M 2.625 -3.40625 "/></g></g></g><g fill="#000000" fill-opacity="1"><g transform="translate(258.675038, 164.72886)"><g><path d="M 6.875 -3.03125 C 7.21875 -3.082031 7.453125 -3.144531 7.578125 -3.21875 L 7.609375 -3.234375 L 7.828125 -1.078125 L 1.453125 -0.203125 L -0.109375 -11.5625 C 0.046875 -11.570312 0.21875 -11.585938 0.40625 -11.609375 L 1 -11.6875 C 1.394531 -11.726562 1.828125 -11.78125 2.296875 -11.84375 C 3.585938 -12.019531 4.867188 -12.21875 6.140625 -12.4375 C 6.140625 -11.9375 6.195312 -11.265625 6.3125 -10.421875 C 6.332031 -10.328125 6.347656 -10.257812 6.359375 -10.21875 L 6.34375 -10.1875 C 6.050781 -10.226562 5.628906 -10.210938 5.078125 -10.140625 L 2.40625 -9.765625 L 2.703125 -7.609375 L 4.71875 -7.890625 C 5.332031 -7.972656 5.707031 -8.046875 5.84375 -8.109375 L 6.140625 -6 C 5.867188 -6 5.515625 -5.96875 5.078125 -5.90625 L 2.984375 -5.609375 L 3.40625 -2.546875 Z M 6.875 -3.03125 "/></g></g></g><g fill="#000000" fill-opacity="1"><g transform="translate(266.358732, 163.407818)"><g><path d="M 8.40625 -10.390625 C 9.46875 -10.210938 10.335938 -9.878906 11.015625 -9.390625 L 10.59375 -6.8125 L 10.5625 -6.78125 C 10.320312 -7.320312 9.710938 -7.753906 8.734375 -8.078125 C 8.441406 -8.179688 8.066406 -8.269531 7.609375 -8.34375 C 7.148438 -8.425781 6.6875 -8.414062 6.21875 -8.3125 C 5.75 -8.207031 5.347656 -8.023438 5.015625 -7.765625 C 4.367188 -7.234375 3.953125 -6.398438 3.765625 -5.265625 C 3.546875 -3.941406 3.726562 -2.898438 4.3125 -2.140625 C 4.789062 -1.492188 5.507812 -1.09375 6.46875 -0.9375 C 7.53125 -0.757812 8.429688 -0.84375 9.171875 -1.1875 C 9.453125 -1.300781 9.695312 -1.46875 9.90625 -1.6875 L 9.921875 -1.671875 L 9.53125 0.703125 C 8.550781 1.273438 7.328125 1.441406 5.859375 1.203125 C 4.140625 0.910156 2.878906 0.132812 2.078125 -1.125 C 1.328125 -2.3125 1.09375 -3.769531 1.375 -5.5 C 1.675781 -7.320312 2.425781 -8.675781 3.625 -9.5625 C 4.84375 -10.4375 6.4375 -10.710938 8.40625 -10.390625 Z M 8.40625 -10.390625 "/></g></g></g><g fill="#000000" fill-opacity="1"><g transform="translate(275.354022, 164.398629)"><g><path d="M 2.75 0.046875 C 2.5625 -0.640625 2.515625 -1.359375 2.609375 -2.109375 C 2.710938 -2.859375 2.976562 -3.585938 3.40625 -4.296875 C 3.832031 -5.015625 4.359375 -5.617188 4.984375 -6.109375 C 5.609375 -6.609375 6.285156 -6.96875 7.015625 -7.1875 C 7.753906 -7.414062 8.523438 -7.484375 9.328125 -7.390625 C 10.128906 -7.304688 10.925781 -7.03125 11.71875 -6.5625 C 13.070312 -5.757812 13.96875 -4.65625 14.40625 -3.25 C 14.84375 -1.738281 14.601562 -0.207031 13.6875 1.34375 C 12.789062 2.851562 11.53125 3.800781 9.90625 4.1875 C 8.914062 4.4375 7.914062 4.414062 6.90625 4.125 C 6.40625 3.988281 5.867188 3.75 5.296875 3.40625 C 4.722656 3.0625 4.203125 2.585938 3.734375 1.984375 C 3.273438 1.390625 2.945312 0.742188 2.75 0.046875 Z M 5.515625 -3.1875 C 5.242188 -2.726562 5.066406 -2.257812 4.984375 -1.78125 C 4.910156 -1.3125 4.929688 -0.859375 5.046875 -0.421875 C 5.273438 0.492188 5.84375 1.21875 6.75 1.75 C 7.601562 2.257812 8.457031 2.394531 9.3125 2.15625 C 10.195312 1.894531 10.929688 1.269531 11.515625 0.28125 C 12.078125 -0.65625 12.285156 -1.585938 12.140625 -2.515625 C 11.992188 -3.503906 11.445312 -4.28125 10.5 -4.84375 C 9.582031 -5.394531 8.648438 -5.488281 7.703125 -5.125 C 6.816406 -4.789062 6.085938 -4.144531 5.515625 -3.1875 Z M 5.515625 -3.1875 "/></g></g></g><g fill="#000000" fill-opacity="1"><g transform="translate(285.625416, 170.368381)"><g><path d="M 2.359375 3.53125 C 1.804688 2.789062 1.351562 2.046875 1 1.296875 L 10.21875 -5.546875 C 10.726562 -4.992188 11.28125 -4.316406 11.875 -3.515625 C 12.46875 -2.710938 12.894531 -1.90625 13.15625 -1.09375 C 13.425781 -0.28125 13.523438 0.492188 13.453125 1.234375 C 13.296875 2.710938 12.488281 3.988281 11.03125 5.0625 C 9.40625 6.28125 7.804688 6.710938 6.234375 6.359375 C 4.816406 6.035156 3.523438 5.09375 2.359375 3.53125 Z M 3.8125 1.984375 C 3.976562 2.316406 4.171875 2.632812 4.390625 2.9375 C 4.617188 3.238281 4.921875 3.515625 5.296875 3.765625 C 5.671875 4.023438 6.070312 4.191406 6.5 4.265625 C 7.425781 4.410156 8.390625 4.113281 9.390625 3.375 C 11.023438 2.15625 11.585938 0.804688 11.078125 -0.671875 C 10.910156 -1.160156 10.632812 -1.660156 10.25 -2.171875 L 10.109375 -2.359375 C 10.054688 -2.429688 10.003906 -2.503906 9.953125 -2.578125 Z M 3.8125 1.984375 "/></g></g></g><g fill="#000000" fill-opacity="1"><g transform="translate(291.893538, 178.883811)"><g><path d="M 4.203125 6.21875 C 4.304688 6.5625 4.40625 6.785156 4.5 6.890625 L 4.515625 6.921875 L 2.4375 7.515625 L 0.453125 1.390625 L 11.359375 -2.140625 C 11.398438 -1.984375 11.445312 -1.816406 11.5 -1.640625 L 11.671875 -1.0625 C 11.785156 -0.6875 11.914062 -0.273438 12.0625 0.171875 C 12.46875 1.421875 12.890625 2.648438 13.328125 3.859375 C 12.828125 3.953125 12.175781 4.128906 11.375 4.390625 C 11.289062 4.421875 11.226562 4.445312 11.1875 4.46875 L 11.15625 4.46875 C 11.144531 4.15625 11.054688 3.738281 10.890625 3.21875 L 10.046875 0.640625 L 7.96875 1.3125 L 8.609375 3.25 C 8.796875 3.84375 8.925781 4.195312 9 4.3125 L 6.984375 4.984375 C 6.929688 4.722656 6.835938 4.382812 6.703125 3.96875 L 6.046875 1.9375 L 3.109375 2.890625 Z M 4.203125 6.21875 "/></g></g></g><g fill="#000000" fill-opacity="1"><g transform="translate(294.547725, 186.213961)"><g><path d="M 10.875 8.25 L 8.34375 8.109375 L 8.328125 8.046875 C 8.953125 7.617188 9.351562 6.894531 9.53125 5.875 C 9.59375 5.550781 9.617188 5.242188 9.609375 4.953125 C 9.609375 4.660156 9.582031 4.40625 9.53125 4.1875 C 9.488281 3.976562 9.414062 3.800781 9.3125 3.65625 C 9.09375 3.351562 8.820312 3.203125 8.5 3.203125 C 8.0625 3.203125 7.738281 3.34375 7.53125 3.625 C 7.269531 3.96875 7.085938 4.535156 6.984375 5.328125 C 6.890625 6.128906 6.753906 6.769531 6.578125 7.25 C 6.398438 7.738281 6.171875 8.140625 5.890625 8.453125 C 5.378906 9.035156 4.644531 9.332031 3.6875 9.34375 C 2.425781 9.363281 1.445312 8.90625 0.75 7.96875 C 0.15625 7.15625 -0.148438 6.128906 -0.171875 4.890625 C -0.179688 3.898438 0 2.914062 0.375 1.9375 C 0.5 1.613281 0.644531 1.328125 0.8125 1.078125 L 3.671875 1.140625 L 3.703125 1.1875 C 2.484375 1.914062 1.878906 3.085938 1.890625 4.703125 C 1.910156 5.859375 2.195312 6.613281 2.75 6.96875 C 2.945312 7.09375 3.160156 7.148438 3.390625 7.140625 C 3.617188 7.140625 3.804688 7.101562 3.953125 7.03125 C 4.109375 6.957031 4.242188 6.835938 4.359375 6.671875 C 4.554688 6.335938 4.691406 5.773438 4.765625 4.984375 C 4.835938 4.203125 4.972656 3.5625 5.171875 3.0625 C 5.367188 2.5625 5.613281 2.160156 5.90625 1.859375 C 6.457031 1.304688 7.226562 1.023438 8.21875 1.015625 C 9.226562 1.003906 10.054688 1.351562 10.703125 2.0625 C 11.335938 2.789062 11.660156 3.769531 11.671875 5 C 11.691406 6.238281 11.425781 7.320312 10.875 8.25 Z M 10.875 8.25 "/></g></g></g><g fill="#000000" fill-opacity="1"><g transform="translate(79.289757, 210.290729)"><g><path d="M 25.40625 -18.65625 C 25.46875 -18.78125 25.515625 -18.910156 25.546875 -19.046875 C 25.585938 -19.179688 25.625 -19.300781 25.65625 -19.40625 C 26.257812 -22.0625 26.875 -24.703125 27.5 -27.328125 C 28.125 -29.953125 28.738281 -32.585938 29.34375 -35.234375 C 29.457031 -35.609375 29.585938 -35.988281 29.734375 -36.375 C 29.878906 -36.757812 30.003906 -37.148438 30.109375 -37.546875 C 31.703125 -38.578125 33.359375 -39.175781 35.078125 -39.34375 C 36.796875 -39.519531 38.425781 -39.296875 39.96875 -38.671875 C 41.507812 -38.054688 42.800781 -37.082031 43.84375 -35.75 C 44.894531 -34.425781 45.550781 -32.785156 45.8125 -30.828125 C 45.914062 -30.078125 46.039062 -29.070312 46.1875 -27.8125 C 46.332031 -26.5625 46.5 -25.191406 46.6875 -23.703125 C 46.875 -22.210938 47.050781 -20.734375 47.21875 -19.265625 C 47.394531 -17.796875 47.550781 -16.476562 47.6875 -15.3125 C 47.945312 -13.0625 48.195312 -10.914062 48.4375 -8.875 C 48.675781 -6.832031 48.929688 -4.679688 49.203125 -2.421875 C 48.328125 -1.304688 47.332031 -0.472656 46.21875 0.078125 C 45.101562 0.640625 43.960938 0.9375 42.796875 0.96875 C 41.628906 1.007812 40.523438 0.8125 39.484375 0.375 C 38.453125 -0.0625 37.59375 -0.71875 36.90625 -1.59375 C 36.21875 -2.46875 35.804688 -3.539062 35.671875 -4.8125 C 35.535156 -6.007812 35.445312 -7.050781 35.40625 -7.9375 C 35.375 -8.820312 35.347656 -9.695312 35.328125 -10.5625 C 35.316406 -11.425781 35.304688 -12.382812 35.296875 -13.4375 C 35.285156 -14.5 35.253906 -15.785156 35.203125 -17.296875 C 35.148438 -17.328125 35.054688 -17.34375 34.921875 -17.34375 C 34.835938 -16.914062 34.753906 -16.503906 34.671875 -16.109375 C 34.597656 -15.710938 34.507812 -15.300781 34.40625 -14.875 C 33.875 -12.570312 33.332031 -10.257812 32.78125 -7.9375 C 32.238281 -5.613281 31.675781 -3.300781 31.09375 -1 C 30.570312 -0.675781 29.859375 -0.390625 28.953125 -0.140625 C 28.046875 0.109375 27.0625 0.242188 26 0.265625 C 24.945312 0.296875 23.910156 0.175781 22.890625 -0.09375 C 21.867188 -0.375 20.957031 -0.882812 20.15625 -1.625 C 19.363281 -2.375 18.8125 -3.394531 18.5 -4.6875 C 18.257812 -5.644531 17.976562 -6.789062 17.65625 -8.125 C 17.34375 -9.46875 17.03125 -10.804688 16.71875 -12.140625 C 16.414062 -13.484375 16.140625 -14.664062 15.890625 -15.6875 C 15.640625 -16.707031 15.445312 -17.390625 15.3125 -17.734375 C 15.175781 -15.722656 15.039062 -13.804688 14.90625 -11.984375 C 14.78125 -10.171875 14.65625 -8.347656 14.53125 -6.515625 C 14.414062 -4.691406 14.289062 -2.742188 14.15625 -0.671875 C 12.851562 0.015625 11.539062 0.484375 10.21875 0.734375 C 8.894531 0.984375 7.632812 0.96875 6.4375 0.6875 C 5.25 0.414062 4.226562 -0.148438 3.375 -1.015625 C 2.53125 -1.878906 1.925781 -3.078125 1.5625 -4.609375 C 1.207031 -6.148438 1.191406 -8.046875 1.515625 -10.296875 C 1.828125 -12.660156 2.242188 -15.054688 2.765625 -17.484375 C 3.285156 -19.910156 3.726562 -22.289062 4.09375 -24.625 C 4.46875 -26.820312 4.851562 -29.019531 5.25 -31.21875 C 5.644531 -33.414062 6.03125 -35.601562 6.40625 -37.78125 C 7.007812 -38.363281 7.847656 -38.832031 8.921875 -39.1875 C 10.003906 -39.550781 11.179688 -39.738281 12.453125 -39.75 C 13.722656 -39.757812 14.988281 -39.550781 16.25 -39.125 C 17.507812 -38.707031 18.628906 -38.007812 19.609375 -37.03125 C 20.585938 -36.050781 21.300781 -34.738281 21.75 -33.09375 C 22.019531 -32.1875 22.300781 -31.101562 22.59375 -29.84375 C 22.882812 -28.582031 23.1875 -27.28125 23.5 -25.9375 C 23.820312 -24.601562 24.128906 -23.316406 24.421875 -22.078125 C 24.441406 -22.023438 24.484375 -21.832031 24.546875 -21.5 C 24.617188 -21.164062 24.707031 -20.785156 24.8125 -20.359375 C 24.914062 -19.929688 25 -19.550781 25.0625 -19.21875 C 25.132812 -18.894531 25.1875 -18.707031 25.21875 -18.65625 C 25.269531 -18.65625 25.304688 -18.65625 25.328125 -18.65625 C 25.359375 -18.65625 25.382812 -18.65625 25.40625 -18.65625 Z M 25.40625 -18.65625 "/></g></g></g><g fill="#000000" fill-opacity="1"><g transform="translate(129.9213, 210.290729)"><g><path d="M 22 -40.5625 C 24.695312 -40.59375 27.0625 -40.289062 29.09375 -39.65625 C 31.125 -39.019531 32.851562 -38.195312 34.28125 -37.1875 C 35.71875 -36.175781 36.90625 -35.097656 37.84375 -33.953125 C 38.78125 -32.816406 39.519531 -31.738281 40.0625 -30.71875 C 40.613281 -29.695312 41.007812 -28.867188 41.25 -28.234375 C 42.175781 -25.691406 42.722656 -23.125 42.890625 -20.53125 C 43.066406 -17.945312 42.753906 -15.347656 41.953125 -12.734375 C 39.785156 -5.753906 35.160156 -1.429688 28.078125 0.234375 C 25.210938 0.921875 22.390625 1.140625 19.609375 0.890625 C 16.828125 0.640625 14.109375 -0.171875 11.453125 -1.546875 C 8.929688 -2.847656 6.921875 -4.539062 5.421875 -6.625 C 3.929688 -8.707031 2.878906 -11.113281 2.265625 -13.84375 C 1.867188 -15.5625 1.632812 -17.320312 1.5625 -19.125 C 1.5 -20.925781 1.609375 -22.675781 1.890625 -24.375 C 2.171875 -26.070312 2.628906 -27.597656 3.265625 -28.953125 C 3.898438 -30.359375 4.71875 -31.742188 5.71875 -33.109375 C 6.726562 -34.472656 7.972656 -35.71875 9.453125 -36.84375 C 10.941406 -37.96875 12.71875 -38.867188 14.78125 -39.546875 C 16.851562 -40.222656 19.257812 -40.5625 22 -40.5625 Z M 22.1875 -26.328125 C 21.207031 -26.328125 20.300781 -26.054688 19.46875 -25.515625 C 18.632812 -24.972656 17.976562 -24.160156 17.5 -23.078125 C 17.019531 -22.003906 16.832031 -20.675781 16.9375 -19.09375 C 17.039062 -17.550781 17.390625 -16.328125 17.984375 -15.421875 C 18.585938 -14.523438 19.289062 -13.882812 20.09375 -13.5 C 20.90625 -13.113281 21.65625 -12.945312 22.34375 -13 C 23.0625 -13.050781 23.785156 -13.28125 24.515625 -13.6875 C 25.242188 -14.101562 25.863281 -14.757812 26.375 -15.65625 C 26.894531 -16.5625 27.195312 -17.757812 27.28125 -19.25 C 27.382812 -20.757812 27.203125 -22.035156 26.734375 -23.078125 C 26.273438 -24.128906 25.640625 -24.929688 24.828125 -25.484375 C 24.023438 -26.046875 23.144531 -26.328125 22.1875 -26.328125 Z M 22.1875 -26.328125 "/></g></g></g><g fill="#000000" fill-opacity="1"><g transform="translate(174.467515, 210.290729)"><g><path d="M 16.65625 -26.015625 C 17.988281 -26.015625 19.273438 -26.015625 20.515625 -26.015625 C 21.765625 -26.015625 23.023438 -26.015625 24.296875 -26.015625 C 24.347656 -27.492188 24.378906 -29.035156 24.390625 -30.640625 C 24.410156 -32.242188 24.4375 -33.710938 24.46875 -35.046875 C 24.507812 -36.390625 24.585938 -37.421875 24.703125 -38.140625 C 25.679688 -38.910156 26.804688 -39.429688 28.078125 -39.703125 C 29.347656 -39.984375 30.632812 -40.023438 31.9375 -39.828125 C 33.238281 -39.628906 34.441406 -39.195312 35.546875 -38.53125 C 36.660156 -37.875 37.5625 -36.992188 38.25 -35.890625 C 38.945312 -34.796875 39.296875 -33.488281 39.296875 -31.96875 C 39.296875 -31.175781 39.296875 -30.070312 39.296875 -28.65625 C 39.296875 -27.238281 39.296875 -25.609375 39.296875 -23.765625 C 39.296875 -21.921875 39.296875 -19.953125 39.296875 -17.859375 C 39.296875 -15.765625 39.285156 -13.632812 39.265625 -11.46875 C 39.253906 -9.3125 39.25 -7.222656 39.25 -5.203125 C 39.25 -4.515625 39.242188 -3.753906 39.234375 -2.921875 C 39.222656 -2.085938 39.191406 -1.445312 39.140625 -1 C 38.847656 -0.675781 38.304688 -0.375 37.515625 -0.09375 C 36.734375 0.175781 35.816406 0.367188 34.765625 0.484375 C 33.722656 0.609375 32.644531 0.628906 31.53125 0.546875 C 30.425781 0.472656 29.367188 0.238281 28.359375 -0.15625 C 27.347656 -0.550781 26.503906 -1.125 25.828125 -1.875 C 25.148438 -2.632812 24.734375 -3.613281 24.578125 -4.8125 C 24.492188 -5.34375 24.429688 -5.984375 24.390625 -6.734375 C 24.359375 -7.492188 24.328125 -8.289062 24.296875 -9.125 C 24.273438 -9.957031 24.253906 -10.734375 24.234375 -11.453125 C 24.222656 -12.171875 24.21875 -12.742188 24.21875 -13.171875 C 22.945312 -13.171875 21.71875 -13.171875 20.53125 -13.171875 C 19.351562 -13.171875 18.101562 -13.171875 16.78125 -13.171875 C 16.78125 -11.234375 16.78125 -9.226562 16.78125 -7.15625 C 16.78125 -5.09375 16.78125 -3.023438 16.78125 -0.953125 C 16.40625 -0.640625 15.804688 -0.328125 14.984375 -0.015625 C 14.171875 0.285156 13.226562 0.5 12.15625 0.625 C 11.082031 0.757812 9.976562 0.769531 8.84375 0.65625 C 7.71875 0.539062 6.65625 0.222656 5.65625 -0.296875 C 4.664062 -0.816406 3.835938 -1.585938 3.171875 -2.609375 C 2.515625 -3.628906 2.132812 -4.945312 2.03125 -6.5625 C 1.976562 -7.300781 1.925781 -8.398438 1.875 -9.859375 C 1.820312 -11.316406 1.765625 -13 1.703125 -14.90625 C 1.648438 -16.820312 1.601562 -18.847656 1.5625 -20.984375 C 1.53125 -23.117188 1.515625 -25.21875 1.515625 -27.28125 C 1.515625 -29.351562 1.523438 -31.28125 1.546875 -33.0625 C 1.578125 -34.851562 1.628906 -36.347656 1.703125 -37.546875 C 2.765625 -38.421875 3.929688 -39.039062 5.203125 -39.40625 C 6.484375 -39.78125 7.765625 -39.921875 9.046875 -39.828125 C 10.335938 -39.734375 11.523438 -39.425781 12.609375 -38.90625 C 13.691406 -38.394531 14.59375 -37.703125 15.3125 -36.828125 C 16.03125 -35.953125 16.441406 -34.90625 16.546875 -33.6875 C 16.679688 -32.519531 16.75 -31.375 16.75 -30.25 C 16.75 -29.125 16.734375 -28.164062 16.703125 -27.375 C 16.671875 -26.59375 16.65625 -26.140625 16.65625 -26.015625 Z M 16.65625 -26.015625 "/></g></g></g><g fill="#000000" fill-opacity="1"><g transform="translate(215.593218, 210.290729)"><g><path d="M 16.34375 -31.96875 C 16.476562 -31.175781 16.578125 -30.03125 16.640625 -28.53125 C 16.710938 -27.03125 16.753906 -25.3125 16.765625 -23.375 C 16.773438 -21.445312 16.765625 -19.4375 16.734375 -17.34375 C 16.710938 -15.25 16.660156 -13.179688 16.578125 -11.140625 C 16.503906 -9.097656 16.410156 -7.21875 16.296875 -5.5 C 16.191406 -3.789062 16.0625 -2.378906 15.90625 -1.265625 C 15.25 -0.554688 14.410156 -0.046875 13.390625 0.265625 C 12.367188 0.585938 11.28125 0.675781 10.125 0.53125 C 8.96875 0.382812 7.84375 -0.0078125 6.75 -0.65625 C 5.664062 -1.300781 4.707031 -2.226562 3.875 -3.4375 C 3.039062 -4.644531 2.453125 -6.140625 2.109375 -7.921875 C 2.003906 -8.421875 1.910156 -9.257812 1.828125 -10.4375 C 1.742188 -11.613281 1.671875 -13.003906 1.609375 -14.609375 C 1.546875 -16.210938 1.5 -17.941406 1.46875 -19.796875 C 1.445312 -21.660156 1.441406 -23.523438 1.453125 -25.390625 C 1.460938 -27.265625 1.492188 -29.046875 1.546875 -30.734375 C 1.597656 -32.429688 1.679688 -33.9375 1.796875 -35.25 C 1.921875 -36.5625 2.078125 -37.566406 2.265625 -38.265625 C 3.003906 -38.921875 3.910156 -39.421875 4.984375 -39.765625 C 6.066406 -40.109375 7.203125 -40.253906 8.390625 -40.203125 C 9.585938 -40.148438 10.734375 -39.832031 11.828125 -39.25 C 12.929688 -38.664062 13.882812 -37.785156 14.6875 -36.609375 C 15.5 -35.429688 16.050781 -33.882812 16.34375 -31.96875 Z M 16.34375 -31.96875 "/></g></g></g><g fill="#000000" fill-opacity="1"><g transform="translate(234.604909, 210.290729)"><g><path d="M 35.75 -39.6875 C 36.175781 -39.132812 36.523438 -38.335938 36.796875 -37.296875 C 37.078125 -36.265625 37.203125 -35.144531 37.171875 -33.9375 C 37.148438 -32.738281 36.898438 -31.582031 36.421875 -30.46875 C 35.953125 -29.351562 35.191406 -28.410156 34.140625 -27.640625 C 33.097656 -26.867188 31.6875 -26.429688 29.90625 -26.328125 C 29.21875 -26.296875 28.640625 -26.257812 28.171875 -26.21875 C 27.710938 -26.1875 27.429688 -26.171875 27.328125 -26.171875 C 27.378906 -24.679688 27.410156 -23.046875 27.421875 -21.265625 C 27.429688 -19.492188 27.421875 -17.664062 27.390625 -15.78125 C 27.367188 -13.90625 27.316406 -12.070312 27.234375 -10.28125 C 27.160156 -8.488281 27.070312 -6.816406 26.96875 -5.265625 C 26.863281 -3.710938 26.726562 -2.394531 26.5625 -1.3125 C 25.90625 -0.570312 25.066406 -0.046875 24.046875 0.265625 C 23.023438 0.585938 21.9375 0.675781 20.78125 0.53125 C 19.625 0.382812 18.5 -0.0195312 17.40625 -0.6875 C 16.320312 -1.363281 15.363281 -2.3125 14.53125 -3.53125 C 13.695312 -4.757812 13.109375 -6.300781 12.765625 -8.15625 C 12.660156 -8.707031 12.566406 -9.597656 12.484375 -10.828125 C 12.410156 -12.066406 12.335938 -13.515625 12.265625 -15.171875 C 12.203125 -16.828125 12.15625 -18.601562 12.125 -20.5 C 12.101562 -22.394531 12.101562 -24.296875 12.125 -26.203125 C 10.800781 -26.097656 9.4375 -26.050781 8.03125 -26.0625 C 6.625 -26.082031 5.273438 -26.222656 3.984375 -26.484375 C 3.472656 -27.148438 3.097656 -28.003906 2.859375 -29.046875 C 2.617188 -30.097656 2.550781 -31.207031 2.65625 -32.375 C 2.769531 -33.539062 3.078125 -34.65625 3.578125 -35.71875 C 4.078125 -36.78125 4.816406 -37.660156 5.796875 -38.359375 C 6.785156 -39.054688 8.035156 -39.460938 9.546875 -39.578125 C 10.390625 -39.628906 11.507812 -39.664062 12.90625 -39.6875 C 14.300781 -39.71875 15.851562 -39.734375 17.5625 -39.734375 C 19.269531 -39.734375 21.023438 -39.734375 22.828125 -39.734375 C 24.628906 -39.734375 26.367188 -39.722656 28.046875 -39.703125 C 29.734375 -39.691406 31.253906 -39.6875 32.609375 -39.6875 C 33.960938 -39.6875 35.007812 -39.6875 35.75 -39.6875 Z M 35.75 -39.6875 "/></g></g></g><g clip-path="url(#eab13cdd17)"><g clip-path="url(#459d6f4ebb)"><path fill="#000000" d="M 54.398438 193.617188 L 307.132812 193.617188 L 307.132812 238.390625 L 54.398438 238.390625 Z M 54.398438 193.617188 " fill-opacity="1" fill-rule="nonzero"/></g></g><g clip-path="url(#b687a21a1d)"><path fill="#000000" d="M 162.601562 149.5625 C 160.964844 151.664062 158.5 152.871094 155.839844 152.871094 C 151.113281 152.871094 147.265625 149.023438 147.265625 144.296875 C 147.265625 139.570312 151.113281 135.722656 155.839844 135.722656 C 158.5 135.722656 160.964844 136.929688 162.601562 139.03125 L 163.183594 139.773438 L 176.492188 139.773438 L 175.554688 137.179688 C 172.566406 128.902344 164.644531 123.339844 155.839844 123.339844 C 149.230469 123.339844 143.046875 126.445312 139.089844 131.699219 L 132.074219 131.699219 C 131.449219 129.402344 129.347656 127.710938 126.859375 127.710938 C 123.878906 127.710938 121.453125 130.136719 121.453125 133.121094 C 121.453125 136.101562 123.878906 138.527344 126.859375 138.527344 C 128.957031 138.527344 130.78125 137.324219 131.675781 135.570312 L 141.113281 135.570312 L 141.6875 134.722656 C 144.878906 130.019531 150.167969 127.214844 155.839844 127.214844 C 162.054688 127.214844 167.726562 130.613281 170.71875 135.902344 L 165.027344 135.902344 C 162.671875 133.316406 159.375 131.851562 155.839844 131.851562 C 148.976562 131.851562 143.394531 137.433594 143.394531 144.296875 C 143.394531 151.160156 148.976562 156.742188 155.839844 156.742188 C 159.375 156.742188 162.671875 155.277344 165.027344 152.691406 L 170.71875 152.691406 C 167.726562 157.980469 162.054688 161.378906 155.839844 161.378906 C 149.398438 161.378906 143.570312 157.816406 140.628906 152.082031 L 140.089844 151.03125 L 131.953125 151.03125 C 131.207031 148.9375 129.207031 147.433594 126.859375 147.433594 C 123.875 147.433594 121.453125 149.859375 121.453125 152.839844 C 121.453125 155.820312 123.878906 158.246094 126.859375 158.246094 C 129.109375 158.246094 131.042969 156.863281 131.855469 154.902344 L 137.761719 154.902344 C 141.519531 161.316406 148.34375 165.253906 155.839844 165.253906 C 164.644531 165.253906 172.566406 159.691406 175.554688 151.414062 L 176.492188 148.820312 L 163.183594 148.820312 Z M 126.859375 135.484375 C 125.554688 135.484375 124.496094 134.421875 124.496094 133.121094 C 124.496094 131.816406 125.554688 130.753906 126.859375 130.753906 C 128.164062 130.753906 129.222656 131.816406 129.222656 133.121094 C 129.222656 134.425781 128.164062 135.484375 126.859375 135.484375 Z M 126.859375 155.203125 C 125.554688 155.203125 124.496094 154.144531 124.496094 152.839844 C 124.496094 151.535156 125.554688 150.476562 126.859375 150.476562 C 128.164062 150.476562 129.222656 151.535156 129.222656 152.839844 C 129.222656 154.144531 128.164062 155.203125 126.859375 155.203125 Z M 126.859375 155.203125 " fill-opacity="1" fill-rule="nonzero"/></g><g clip-path="url(#65bcfc4cfe)"><path fill="#000000" d="M 134.898438 145.035156 C 134.9375 146.117188 135.054688 147.191406 135.257812 148.25 L 139.214844 148.25 C 138.910156 146.960938 138.753906 145.636719 138.753906 144.296875 C 138.753906 142.238281 139.117188 140.226562 139.832031 138.316406 L 135.75 138.316406 C 135.472656 139.25 135.261719 140.199219 135.117188 141.160156 L 118.953125 141.160156 C 118.171875 139.132812 116.207031 137.691406 113.90625 137.691406 C 110.925781 137.691406 108.5 140.117188 108.5 143.097656 C 108.5 146.082031 110.925781 148.507812 113.90625 148.507812 C 116.207031 148.507812 118.171875 147.0625 118.953125 145.035156 Z M 113.90625 145.460938 C 112.601562 145.460938 111.542969 144.402344 111.542969 143.097656 C 111.542969 141.792969 112.601562 140.734375 113.90625 140.734375 C 115.210938 140.734375 116.269531 141.792969 116.269531 143.097656 C 116.269531 144.402344 115.210938 145.460938 113.90625 145.460938 Z M 113.90625 145.460938 " fill-opacity="1" fill-rule="nonzero"/></g></svg>